<svg xmlns="http://www.w3.org/2000/svg" xmlns:xlink="http://www.w3.org/1999/xlink" width="500" zoomAndPan="magnify" viewBox="0 0 375 374.999991" height="500" preserveAspectRatio="xMidYMid meet" version="1.0"><defs><clipPath id="id1"><path d="M 93.625 83.191406 L 281 83.191406 L 281 291.691406 L 93.625 291.691406 Z M 93.625 83.191406 " clip-rule="nonzero"/></clipPath></defs><path fill="#000000" d="M 187.5 37.5 C 104.65625 37.5 37.5 104.65625 37.5 187.5 C 37.5 270.34375 104.65625 337.5 187.5 337.5 C 270.34375 337.5 337.5 270.34375 337.5 187.5 C 337.5 104.65625 270.34375 37.5 187.5 37.5 " fill-opacity="1" fill-rule="nonzero"/><g clip-path="url(#id1)"><path fill="#ffffff" d="M 93.980469 190.777344 C 98.476562 184.4375 104.136719 179.453125 113.9375 179.300781 C 115.65625 159.886719 147.332031 159.761719 156.277344 176.539062 C 173.523438 174.746094 186.347656 166.429688 186.820312 139.902344 C 187.632812 91.742188 134.988281 83.117188 99.492188 96.863281 C 132.71875 72.402344 192.074219 80.152344 208.738281 125.03125 C 220.050781 155.503906 208.984375 192.980469 177.339844 206.558594 C 186.488281 232.132812 191.679688 246.496094 212.652344 263.636719 C 229.769531 277.625 252.757812 284.054688 280.769531 284.023438 C 231.421875 302.957031 179.050781 286.347656 156.929688 239.957031 C 149.398438 224.164062 150.417969 208 137.789062 195.511719 C 126.492188 184.347656 107.121094 183.871094 93.976562 190.777344 Z M 93.980469 190.777344 " fill-opacity="1" fill-rule="evenodd"/></g></svg>