<svg xmlns="http://www.w3.org/2000/svg" xmlns:xlink="http://www.w3.org/1999/xlink" width="500" zoomAndPan="magnify" viewBox="0 0 375 374.999991" height="500" preserveAspectRatio="xMidYMid meet" version="1.0"><defs><g/><clipPath id="id1"><path d="M 96.609375 86.511719 L 278 86.511719 L 278 288.261719 L 96.609375 288.261719 Z M 96.609375 86.511719 " clip-rule="nonzero"/></clipPath></defs><rect x="-37.5" width="450" fill="#ffffff" y="-37.499999" height="449.999989" fill-opacity="1"/><rect x="-37.5" width="450" fill="#191919" y="-37.499999" height="449.999989" fill-opacity="1"/><rect x="-37.5" width="450" fill="#ffffff" y="-37.499999" height="449.999989" fill-opacity="1"/><rect x="-37.5" width="450" fill="#191919" y="-37.499999" height="449.999989" fill-opacity="1"/><g clip-path="url(#id1)"><path fill="#ffffff" d="M 96.953125 190.613281 C 101.308594 184.480469 106.785156 179.65625 116.273438 179.507812 C 117.9375 160.722656 148.601562 160.601562 157.261719 176.839844 C 173.953125 175.101562 186.367188 167.054688 186.828125 141.386719 C 187.609375 94.785156 136.652344 86.4375 102.289062 99.742188 C 134.453125 76.070312 191.914062 83.570312 208.042969 126.996094 C 218.996094 156.480469 208.28125 192.746094 177.648438 205.882812 C 186.503906 230.628906 191.527344 244.527344 211.832031 261.117188 C 228.402344 274.648438 250.65625 280.871094 277.769531 280.84375 C 230 299.160156 179.304688 283.089844 157.890625 238.199219 C 150.601562 222.921875 151.589844 207.277344 139.359375 195.195312 C 128.425781 184.390625 109.675781 183.929688 96.953125 190.613281 Z M 96.953125 190.613281 " fill-opacity="1" fill-rule="evenodd"/></g><g fill="#ffffff" fill-opacity="1"><g transform="translate(141.147321, 319.618865)"><g><path d="M 7.71875 0 L 5.75 -2.84375 L 3.578125 -2.84375 L 3.578125 0 L 1.203125 0 L 1.203125 -10.203125 L 5.625 -10.203125 C 6.53125 -10.203125 7.316406 -10.050781 7.984375 -9.75 C 8.648438 -9.445312 9.160156 -9.019531 9.515625 -8.46875 C 9.878906 -7.914062 10.0625 -7.257812 10.0625 -6.5 C 10.0625 -5.738281 9.878906 -5.082031 9.515625 -4.53125 C 9.148438 -3.988281 8.628906 -3.570312 7.953125 -3.28125 L 10.25 0 Z M 7.671875 -6.5 C 7.671875 -7.070312 7.484375 -7.507812 7.109375 -7.8125 C 6.742188 -8.125 6.207031 -8.28125 5.5 -8.28125 L 3.578125 -8.28125 L 3.578125 -4.71875 L 5.5 -4.71875 C 6.207031 -4.71875 6.742188 -4.875 7.109375 -5.1875 C 7.484375 -5.5 7.671875 -5.9375 7.671875 -6.5 Z M 7.671875 -6.5 "/></g></g></g><g fill="#ffffff" fill-opacity="1"><g transform="translate(163.512139, 319.618865)"><g><path d="M 8.953125 -7.84375 L 8.953125 0 L 6.796875 0 L 6.796875 -0.9375 C 6.492188 -0.59375 6.132812 -0.332031 5.71875 -0.15625 C 5.300781 0.0195312 4.847656 0.109375 4.359375 0.109375 C 3.328125 0.109375 2.507812 -0.179688 1.90625 -0.765625 C 1.300781 -1.359375 1 -2.238281 1 -3.40625 L 1 -7.84375 L 3.28125 -7.84375 L 3.28125 -3.75 C 3.28125 -2.476562 3.8125 -1.84375 4.875 -1.84375 C 5.414062 -1.84375 5.847656 -2.019531 6.171875 -2.375 C 6.503906 -2.738281 6.671875 -3.269531 6.671875 -3.96875 L 6.671875 -7.84375 Z M 8.953125 -7.84375 "/></g></g></g><g fill="#ffffff" fill-opacity="1"><g transform="translate(185.177768, 319.618865)"><g><path d="M 9.03125 -10.8125 L 9.03125 0 L 6.859375 0 L 6.859375 -0.90625 C 6.296875 -0.226562 5.484375 0.109375 4.421875 0.109375 C 3.679688 0.109375 3.007812 -0.0507812 2.40625 -0.375 C 1.8125 -0.707031 1.34375 -1.179688 1 -1.796875 C 0.664062 -2.410156 0.5 -3.117188 0.5 -3.921875 C 0.5 -4.722656 0.664062 -5.429688 1 -6.046875 C 1.34375 -6.660156 1.8125 -7.128906 2.40625 -7.453125 C 3.007812 -7.785156 3.679688 -7.953125 4.421875 -7.953125 C 5.421875 -7.953125 6.203125 -7.640625 6.765625 -7.015625 L 6.765625 -10.8125 Z M 4.8125 -1.75 C 5.382812 -1.75 5.859375 -1.945312 6.234375 -2.34375 C 6.617188 -2.738281 6.8125 -3.265625 6.8125 -3.921875 C 6.8125 -4.578125 6.617188 -5.101562 6.234375 -5.5 C 5.859375 -5.894531 5.382812 -6.09375 4.8125 -6.09375 C 4.226562 -6.09375 3.742188 -5.894531 3.359375 -5.5 C 2.984375 -5.101562 2.796875 -4.578125 2.796875 -3.921875 C 2.796875 -3.265625 2.984375 -2.738281 3.359375 -2.34375 C 3.742188 -1.945312 4.226562 -1.75 4.8125 -1.75 Z M 4.8125 -1.75 "/></g></g></g><g fill="#ffffff" fill-opacity="1"><g transform="translate(206.916226, 319.618865)"><g><path d="M 3.21875 -6.8125 C 3.488281 -7.1875 3.851562 -7.46875 4.3125 -7.65625 C 4.78125 -7.851562 5.316406 -7.953125 5.921875 -7.953125 L 5.921875 -5.859375 C 5.671875 -5.878906 5.5 -5.890625 5.40625 -5.890625 C 4.757812 -5.890625 4.25 -5.707031 3.875 -5.34375 C 3.507812 -4.976562 3.328125 -4.429688 3.328125 -3.703125 L 3.328125 0 L 1.046875 0 L 1.046875 -7.84375 L 3.21875 -7.84375 Z M 3.21875 -6.8125 "/></g></g></g><g fill="#ffffff" fill-opacity="1"><g transform="translate(224.85287, 319.618865)"><g><path d="M 4.21875 -7.953125 C 5.425781 -7.953125 6.351562 -7.660156 7 -7.078125 C 7.65625 -6.503906 7.984375 -5.632812 7.984375 -4.46875 L 7.984375 0 L 5.859375 0 L 5.859375 -0.984375 C 5.429688 -0.253906 4.632812 0.109375 3.46875 0.109375 C 2.863281 0.109375 2.335938 0.0078125 1.890625 -0.1875 C 1.453125 -0.394531 1.117188 -0.675781 0.890625 -1.03125 C 0.660156 -1.394531 0.546875 -1.804688 0.546875 -2.265625 C 0.546875 -2.992188 0.816406 -3.566406 1.359375 -3.984375 C 1.910156 -4.398438 2.757812 -4.609375 3.90625 -4.609375 L 5.71875 -4.609375 C 5.71875 -5.097656 5.566406 -5.476562 5.265625 -5.75 C 4.960938 -6.019531 4.507812 -6.15625 3.90625 -6.15625 C 3.488281 -6.15625 3.078125 -6.085938 2.671875 -5.953125 C 2.265625 -5.828125 1.921875 -5.648438 1.640625 -5.421875 L 0.828125 -7.015625 C 1.253906 -7.316406 1.765625 -7.546875 2.359375 -7.703125 C 2.960938 -7.867188 3.582031 -7.953125 4.21875 -7.953125 Z M 4.03125 -1.421875 C 4.425781 -1.421875 4.773438 -1.507812 5.078125 -1.6875 C 5.378906 -1.863281 5.59375 -2.128906 5.71875 -2.484375 L 5.71875 -3.28125 L 4.15625 -3.28125 C 3.21875 -3.28125 2.75 -2.972656 2.75 -2.359375 C 2.75 -2.066406 2.863281 -1.835938 3.09375 -1.671875 C 3.320312 -1.503906 3.632812 -1.421875 4.03125 -1.421875 Z M 4.03125 -1.421875 "/></g></g></g></svg>