<svg width="18" height="22" viewBox="0 0 18 22" fill="none" xmlns="http://www.w3.org/2000/svg">
<path d="M3.60913 15.3961C3.05784 15.4769 2.15034 15.6273 1.54663 14.9424C0.942918 14.2575 0.420848 12.6036 0.191394 11.1255C-0.147199 8.94696 0.188816 7.11091 1.13671 5.95591C1.6953 5.27571 2.42835 4.88169 3.25678 4.81895C3.9662 4.76438 5.02624 5.04196 6.04975 6.67477C6.69085 7.69786 7.17854 9.05696 7.3878 10.4032C7.64046 12.0283 7.88667 13.7625 7.02514 14.3842C6.53917 14.7353 6.19026 14.8569 5.36569 15.0532C4.68764 15.2144 4.16085 15.3149 3.60913 15.3961ZM2.62858 16.7939L7.30745 15.8288C7.70276 15.7472 8.01987 15.9646 8.16682 16.616C8.64893 18.7541 7.958 21.3125 5.79409 21.3125C3.74491 21.3125 2.37936 18.9767 2.15636 17.7212C2.05452 17.1518 2.19975 16.882 2.62858 16.7939ZM12.6347 10.9287C11.8101 10.7332 11.4612 10.6107 10.9753 10.2597C10.1137 9.6379 10.3599 7.90368 10.6126 6.2786C10.8219 4.93239 11.3096 3.57157 11.9507 2.5502C12.9733 0.917392 14.0333 0.639814 14.7436 0.694384C15.5712 0.757548 16.3047 1.15071 16.8633 1.83091C17.812 2.98591 18.148 4.82196 17.8086 7.00048C17.5787 8.4786 17.0583 10.1269 16.4512 10.8174C15.8441 11.5079 14.9417 11.3519 14.3887 11.2711C13.8357 11.1904 13.3123 11.0894 12.6347 10.9287ZM15.3714 12.6689L10.6925 11.7038C10.2972 11.6222 9.98011 11.8396 9.83315 12.491C9.35147 14.6291 10.0424 17.1875 12.2063 17.1875C14.2555 17.1875 15.621 14.8517 15.8441 13.5962C15.9455 13.0268 15.8002 12.757 15.3714 12.6689Z" fill="#FE7763"/>
</svg>
